<svg width="34" height="34" viewBox="0 0 34 34" fill="none" xmlns="http://www.w3.org/2000/svg">
<path d="M0 17C0 7.61116 7.61116 0 17 0C26.3888 0 34 7.61116 34 17C34 26.3888 26.3888 34 17 34C7.61116 34 0 26.3888 0 17Z" fill="white"/>
<path d="M16.9998 12.4818C18.3831 12.4818 19.3162 13.0793 19.8483 13.5786L21.9273 11.5487C20.6504 10.3618 18.9888 9.63336 16.9998 9.63336C14.1186 9.63336 11.6304 11.2868 10.4189 13.6932L12.8008 15.5431C13.3984 13.7669 15.0518 12.4818 16.9998 12.4818Z" fill="#EA4335"/>
<path d="M24.072 17.1637C24.072 16.558 24.0229 16.116 23.9165 15.6577H17V18.3915H21.0598C20.978 19.0709 20.536 20.094 19.5538 20.7816L21.8784 22.5823C23.2698 21.2972 24.072 19.4065 24.072 17.1637Z" fill="#4285F4"/>
<path d="M12.8092 18.457C12.6536 17.9986 12.5636 17.5075 12.5636 17.0001C12.5636 16.4926 12.6536 16.0015 12.801 15.5431L10.4191 13.6932C9.91978 14.6918 9.6333 15.8132 9.6333 17.0001C9.6333 18.1869 9.91978 19.3083 10.4191 20.3069L12.8092 18.457Z" fill="#FBBC05"/>
<path d="M17 24.3667C18.989 24.3667 20.6587 23.7119 21.8783 22.5823L19.5537 20.7816C18.9317 21.2154 18.0968 21.5182 17 21.5182C15.0519 21.5182 13.3985 20.2332 12.8091 18.457L10.4272 20.3068C11.6387 22.7133 14.1188 24.3667 17 24.3667Z" fill="#34A853"/>
</svg>
