<svg width="38" height="25" viewBox="0 0 38 25" fill="none" xmlns="http://www.w3.org/2000/svg">
<path d="M36.7352 0H1.26526C0.915469 0 0.631836 0.283562 0.631836 0.63335V23.4355C0.631836 23.7853 0.915469 24.0689 1.26526 24.0689H36.7352C37.085 24.0689 37.3687 23.7853 37.3687 23.4355V0.63335C37.3686 0.283562 37.085 0 36.7352 0Z" fill="#00B4DE"/>
<path d="M4.90254 2.88236C4.84521 2.63962 4.83093 2.55015 4.93985 2.4413C4.99294 2.38821 4.99294 2.30217 4.93985 2.24908C4.88675 2.19598 4.80072 2.19598 4.74762 2.24908C4.5272 2.46957 4.5798 2.69839 4.63684 2.94069C4.46306 2.88394 4.28282 2.92605 4.18624 3.04789C4.13831 3.10866 4.04561 3.27914 4.21932 3.55137C4.25971 3.61458 4.34323 3.63316 4.40702 3.59313C4.47038 3.55273 4.48882 3.46857 4.44842 3.40543C4.38327 3.30289 4.38133 3.23968 4.39956 3.21658C4.42108 3.18924 4.48781 3.17482 4.5577 3.19957C4.60283 3.21521 4.70773 3.26938 4.70773 3.43298C4.70773 3.56364 4.64732 3.68339 4.54199 3.76117C4.43644 3.83924 4.29982 3.86126 4.16816 3.82036C4.00557 3.77071 3.89199 3.59944 3.89199 3.40378C3.89199 3.26379 3.92198 3.12229 3.97709 2.99831C3.98584 2.98001 4.19363 2.54957 4.24716 2.38914C4.35299 2.07178 4.24544 1.91221 4.17203 1.84555C4.07381 1.75607 3.93023 1.73376 3.80668 1.78793C3.78788 1.79626 3.77238 1.80831 3.75609 1.8195C3.7398 1.80824 3.72423 1.79626 3.70551 1.78793C3.58202 1.73376 3.43852 1.75607 3.34015 1.84555C3.26675 1.91221 3.15919 2.07185 3.26502 2.38914C3.31855 2.54957 3.52627 2.98001 3.53316 2.99436C3.59006 3.12237 3.62012 3.26386 3.62012 3.40385C3.62012 3.59958 3.50661 3.77078 3.34395 3.82044C3.21178 3.86126 3.0756 3.83952 2.97013 3.76124C2.86479 3.68339 2.80438 3.56371 2.80438 3.43305C2.80438 3.26946 2.90928 3.21536 2.95441 3.19964C3.02451 3.17496 3.09088 3.18924 3.11255 3.21665C3.13078 3.23975 3.12884 3.30296 3.06369 3.4055C3.02329 3.46871 3.04173 3.55287 3.10509 3.5932C3.16895 3.6336 3.25275 3.61472 3.29279 3.55144C3.46643 3.27921 3.3738 3.10881 3.32587 3.04796C3.22922 2.92613 3.04905 2.88401 2.87527 2.94076C2.93238 2.6986 2.98491 2.46964 2.76449 2.24915C2.71139 2.19605 2.62536 2.19605 2.57226 2.24915C2.51917 2.30225 2.51917 2.38828 2.57226 2.44137C2.68111 2.55022 2.66698 2.63969 2.60957 2.88243C2.57513 3.02787 2.53237 3.20926 2.53237 3.43283C2.53237 3.58158 2.58468 3.72386 2.67264 3.84074H2.66827C2.59314 3.84074 2.5323 3.90152 2.5323 3.97671C2.5323 4.05183 2.59307 4.11268 2.66827 4.11268H2.67264C2.58468 4.22956 2.53237 4.37177 2.53237 4.52051C2.53237 4.74409 2.57513 4.92548 2.6095 5.07099C2.66683 5.31373 2.68111 5.4032 2.57219 5.51205C2.5191 5.56514 2.5191 5.65117 2.57219 5.70427C2.59874 5.73082 2.63354 5.74409 2.66834 5.74409C2.70307 5.74409 2.73794 5.73082 2.76449 5.70427C2.98491 5.48378 2.93231 5.25489 2.87527 5.01266C3.04905 5.0692 3.22929 5.0273 3.32587 4.90546C3.3738 4.84469 3.4665 4.67421 3.29279 4.40198C3.25254 4.33877 3.16852 4.31997 3.10509 4.36022C3.04173 4.40062 3.02329 4.48478 3.06369 4.54792C3.12884 4.65046 3.13078 4.71367 3.11255 4.73677C3.09096 4.76382 3.02451 4.77817 2.95441 4.75378C2.90928 4.73814 2.80438 4.68396 2.80438 4.52037C2.80438 4.38971 2.86479 4.26996 2.97013 4.19218C3.07567 4.11411 3.21214 4.0918 3.34395 4.13298C3.50654 4.18264 3.62012 4.35391 3.62012 4.54957C3.62012 4.68956 3.59013 4.83105 3.53316 4.95906L2.64265 6.96243C2.56947 7.12703 2.5323 7.3021 2.5323 7.48234C2.5323 7.71432 2.63777 7.92613 2.80381 8.05542C2.63784 8.18472 2.5323 8.39653 2.5323 8.6285C2.5323 8.80881 2.56954 8.98381 2.64265 9.14841L3.53302 11.1516C3.58992 11.2796 3.61998 11.4211 3.61998 11.5611C3.61998 11.7569 3.50647 11.9281 3.34381 11.9777C3.21164 12.0189 3.07546 11.9968 2.96998 11.9185C2.86465 11.8407 2.80424 11.721 2.80424 11.5903C2.80424 11.4267 2.90914 11.3726 2.95427 11.3569C3.02437 11.3325 3.09074 11.3465 3.11241 11.3739C3.13063 11.397 3.1287 11.4602 3.06355 11.5628C3.02315 11.626 3.04159 11.7102 3.10495 11.7505C3.16881 11.7909 3.25261 11.7722 3.29265 11.7087C3.46629 11.4365 3.37366 11.2661 3.32573 11.2052C3.22908 11.0834 3.04891 11.0414 2.87513 11.098C2.93224 10.8559 2.98476 10.6269 2.76434 10.4064C2.71125 10.3533 2.62522 10.3533 2.57212 10.4064C2.51902 10.4595 2.51902 10.5456 2.57212 10.5987C2.68097 10.7075 2.66683 10.797 2.60943 11.0397C2.57506 11.1852 2.5323 11.3666 2.5323 11.5902C2.5323 11.7389 2.58461 11.8812 2.67257 11.9981H2.6682C2.59307 11.9981 2.53223 12.0589 2.53223 12.1341C2.53223 12.2093 2.593 12.27 2.6682 12.27H2.67257C2.58453 12.3869 2.5323 12.5291 2.5323 12.6779C2.5323 12.9015 2.57506 13.0829 2.60943 13.2284C2.66676 13.4712 2.68104 13.5606 2.57212 13.6695C2.51902 13.7226 2.51902 13.8086 2.57212 13.8617C2.59867 13.8882 2.63347 13.9015 2.66827 13.9015C2.703 13.9015 2.73787 13.8882 2.76441 13.8617C2.98483 13.6412 2.93224 13.4123 2.8752 13.1701C3.04898 13.2266 3.22922 13.1847 3.3258 13.0629C3.37373 13.0021 3.46643 12.8316 3.29272 12.5594C3.25247 12.4962 3.16845 12.4774 3.10502 12.5176C3.04166 12.558 3.02322 12.6422 3.06362 12.7053C3.12877 12.8079 3.13071 12.8711 3.11248 12.8942C3.09088 12.9215 3.02444 12.936 2.95434 12.9112C2.90921 12.8956 2.80431 12.8414 2.80431 12.6778C2.80431 12.5471 2.86472 12.4274 2.97005 12.3496C3.0756 12.2715 3.21207 12.2492 3.34388 12.2904C3.50647 12.3401 3.62005 12.5113 3.62005 12.707C3.62005 12.847 3.59006 12.9885 3.53309 13.1165L2.64265 15.1201C2.56947 15.2847 2.5323 15.4597 2.5323 15.64C2.5323 15.872 2.63777 16.0838 2.80381 16.2131C2.63784 16.3424 2.5323 16.5542 2.5323 16.7861C2.5323 16.9665 2.56954 17.1415 2.64265 17.3061L3.53302 19.3093C3.58992 19.4373 3.61998 19.5788 3.61998 19.7188C3.61998 19.9145 3.50647 20.0857 3.34381 20.1354C3.21164 20.1765 3.07546 20.1542 2.96998 20.0762C2.86465 19.9983 2.80424 19.8786 2.80424 19.748C2.80424 19.5844 2.90914 19.5303 2.95427 19.5146C3.02437 19.4901 3.09074 19.5042 3.11241 19.5316C3.13063 19.5547 3.1287 19.6179 3.06355 19.7204C3.02315 19.7836 3.04159 19.8677 3.10495 19.9081C3.16881 19.9485 3.25261 19.9299 3.29265 19.8664C3.46629 19.5941 3.37366 19.4237 3.32573 19.3629C3.22908 19.2407 3.04891 19.1989 2.87513 19.2557C2.93224 19.0135 2.98476 18.7846 2.76434 18.5641C2.71125 18.511 2.62522 18.511 2.57212 18.5641C2.51902 18.6172 2.51902 18.7032 2.57212 18.7563C2.68097 18.8651 2.66683 18.9546 2.60943 19.1973C2.57506 19.3429 2.5323 19.5242 2.5323 19.7478C2.5323 19.9609 2.6344 20.1638 2.8051 20.2916C2.6344 20.4195 2.5323 20.6224 2.5323 20.8355C2.5323 21.0591 2.57506 21.2405 2.60943 21.386C2.66676 21.6286 2.68104 21.7182 2.57212 21.827C2.51902 21.8801 2.51902 21.9662 2.57212 22.0193C2.59867 22.0458 2.63347 22.0591 2.66827 22.0591C2.703 22.0591 2.73787 22.0458 2.76441 22.0193C2.98483 21.7988 2.93224 21.5699 2.8752 21.3277C3.04898 21.3842 3.22922 21.3423 3.3258 21.2205C3.37373 21.1597 3.46643 20.9892 3.29272 20.717C3.25247 20.6538 3.16845 20.6352 3.10502 20.6752C3.04166 20.7156 3.02322 20.7998 3.06362 20.8629C3.12877 20.9654 3.13071 21.0287 3.11248 21.0518C3.09088 21.0791 3.02444 21.0932 2.95434 21.0688C2.90921 21.0531 2.80431 20.999 2.80431 20.8354C2.80431 20.7047 2.86472 20.5849 2.97005 20.5072C3.0756 20.4291 3.21207 20.4071 3.34388 20.448C3.50647 20.4976 3.62005 20.6689 3.62005 20.8646C3.62005 21.0046 3.59006 21.146 3.53495 21.27C3.5262 21.2883 3.31841 21.7188 3.26488 21.8792C3.15905 22.1966 3.2666 22.3561 3.34 22.4228C3.40279 22.4799 3.48365 22.5099 3.56631 22.5099C3.61316 22.5099 3.66066 22.5001 3.70543 22.4805C3.72423 22.4722 3.73973 22.4601 3.75602 22.4489C3.77231 22.4602 3.78788 22.4722 3.8066 22.4805C3.85131 22.5001 3.89888 22.5099 3.94573 22.5099C4.02817 22.5099 4.10918 22.4799 4.17203 22.4228C4.24544 22.3561 4.35299 22.1965 4.24716 21.8792C4.19363 21.7188 3.98591 21.2883 3.97902 21.274C3.92212 21.146 3.89206 21.0045 3.89206 20.8645C3.89206 20.6688 4.00557 20.4975 4.16823 20.4479C4.30047 20.407 4.43658 20.429 4.54206 20.5071C4.64739 20.5849 4.7078 20.7046 4.7078 20.8353C4.7078 20.9989 4.6029 21.053 4.55777 21.0687C4.48796 21.0932 4.42108 21.0791 4.39963 21.0517C4.38141 21.0286 4.38334 20.9654 4.44849 20.8628C4.48889 20.7996 4.47045 20.7155 4.40709 20.6751C4.34359 20.6353 4.25986 20.6539 4.21939 20.7169C4.04575 20.9891 4.13838 21.1595 4.18631 21.2204C4.28296 21.3422 4.46313 21.3842 4.63691 21.3276C4.5798 21.5697 4.52728 21.7987 4.7477 22.0192C4.77425 22.0457 4.80904 22.059 4.84384 22.059C4.87864 22.059 4.91344 22.0457 4.93999 22.0192C4.99309 21.9661 4.99309 21.8801 4.93999 21.827C4.83114 21.7181 4.84528 21.6286 4.90268 21.3859C4.93705 21.2404 4.97981 21.059 4.97981 20.8354C4.97981 20.6223 4.87771 20.4194 4.70701 20.2916C4.87771 20.1637 4.97981 19.9609 4.97981 19.7477C4.97981 19.5241 4.93705 19.3427 4.90268 19.1972C4.84535 18.9545 4.83107 18.865 4.93999 18.7561C4.99309 18.7031 4.99309 18.617 4.93999 18.5639C4.88689 18.5108 4.80086 18.5108 4.74777 18.5639C4.52735 18.7844 4.57994 19.0132 4.63698 19.2555C4.4632 19.1988 4.28296 19.2405 4.18639 19.3627C4.13846 19.4235 4.04575 19.594 4.21946 19.8662C4.25986 19.9294 4.34338 19.948 4.40716 19.908C4.47052 19.8676 4.48896 19.7834 4.44856 19.7203C4.38341 19.6177 4.38148 19.5545 4.3997 19.5314C4.42123 19.5041 4.48796 19.49 4.55784 19.5144C4.60297 19.5301 4.70787 19.5842 4.70787 19.7478C4.70787 19.8785 4.64746 19.9982 4.54213 20.076C4.43658 20.1541 4.29997 20.1764 4.1683 20.1352C4.00571 20.0856 3.89213 19.9143 3.89213 19.7186C3.89213 19.5786 3.92212 19.4371 3.97909 19.3091L4.86946 17.3059C4.94265 17.1413 4.97981 16.9662 4.97981 16.786C4.97981 16.554 4.87434 16.3422 4.70831 16.2129C4.87427 16.0836 4.97981 15.8718 4.97981 15.6398C4.97981 15.4595 4.94257 15.2845 4.86946 15.1199L3.97917 13.1168C3.92227 12.9888 3.8922 12.8473 3.8922 12.7074C3.8922 12.5116 4.00571 12.3404 4.16838 12.2908C4.30061 12.2499 4.43673 12.2719 4.5422 12.35C4.64753 12.4278 4.70795 12.5475 4.70795 12.6782C4.70795 12.8417 4.60305 12.8958 4.55791 12.9116C4.4881 12.9362 4.42123 12.922 4.39977 12.8946C4.38155 12.8715 4.38349 12.8082 4.44864 12.7057C4.48903 12.6425 4.47059 12.5584 4.40724 12.518C4.34374 12.4782 4.26 12.4968 4.21953 12.5598C4.0459 12.832 4.13853 13.0024 4.18646 13.0632C4.28311 13.1851 4.46327 13.2271 4.63706 13.1704C4.57994 13.4126 4.52742 13.6416 4.74784 13.8621C4.77439 13.8886 4.80919 13.9019 4.84399 13.9019C4.87879 13.9019 4.91359 13.8886 4.94013 13.8621C4.99323 13.809 4.99323 13.7229 4.94013 13.6698C4.83129 13.561 4.84542 13.4715 4.90282 13.2288C4.93719 13.0833 4.97996 12.9019 4.97996 12.6783C4.97996 12.5296 4.92765 12.3873 4.83968 12.2704H4.84406C4.91918 12.2704 4.98003 12.2096 4.98003 12.1344C4.98003 12.0593 4.91925 11.9985 4.84406 11.9985H4.83968C4.92772 11.8816 4.97996 11.7394 4.97996 11.5905C4.97996 11.367 4.93719 11.1856 4.90282 11.0401C4.84549 10.7973 4.83122 10.7079 4.94013 10.599C4.99323 10.5459 4.99323 10.4599 4.94013 10.4068C4.88704 10.3537 4.80101 10.3537 4.74791 10.4068C4.52749 10.6273 4.58009 10.8562 4.63713 11.0984C4.46335 11.0419 4.28311 11.0838 4.18653 11.2056C4.1386 11.2664 4.0459 11.4369 4.21961 11.7091C4.26 11.7723 4.34352 11.7907 4.40731 11.7508C4.47066 11.7104 4.4891 11.6263 4.44871 11.5631C4.38356 11.4606 4.38162 11.3974 4.39985 11.3743C4.42137 11.3469 4.4881 11.3329 4.55799 11.3573C4.60312 11.3729 4.70802 11.4271 4.70802 11.5907C4.70802 11.7213 4.6476 11.8411 4.54227 11.9189C4.43673 11.9969 4.30011 12.019 4.16845 11.9781C4.00586 11.9284 3.89228 11.7572 3.89228 11.5615C3.89228 11.4215 3.92227 11.28 3.97924 11.152L4.8696 9.14877C4.94279 8.98417 4.97996 8.8091 4.97996 8.62886C4.97996 8.39689 4.87448 8.18508 4.70845 8.05578C4.87441 7.92648 4.97996 7.71467 4.97996 7.4827C4.97996 7.30239 4.94272 7.12739 4.8696 6.96279L3.97924 4.95956C3.92234 4.83156 3.89228 4.69006 3.89228 4.55008C3.89228 4.35434 4.00579 4.18314 4.16845 4.13349C4.30069 4.09259 4.4368 4.11462 4.54227 4.19268C4.6476 4.27053 4.70802 4.39021 4.70802 4.52087C4.70802 4.68447 4.60312 4.73857 4.55799 4.75428C4.48817 4.77875 4.4213 4.76433 4.39985 4.73728C4.38162 4.71417 4.38356 4.65096 4.44871 4.54843C4.4891 4.48521 4.47066 4.40105 4.40731 4.36072C4.34381 4.3209 4.26007 4.3392 4.21961 4.40241C4.04597 4.67464 4.1386 4.84505 4.18653 4.90589C4.28318 5.02773 4.46335 5.0697 4.63713 5.01309C4.58001 5.25525 4.52749 5.48421 4.74791 5.7047C4.77446 5.73125 4.80926 5.74452 4.84406 5.74452C4.87886 5.74452 4.91366 5.73125 4.94021 5.7047C4.9933 5.6516 4.9933 5.56557 4.94021 5.51248C4.83136 5.40363 4.84549 5.31416 4.9029 5.07142C4.93726 4.92591 4.98003 4.74452 4.98003 4.52094C4.98003 4.3722 4.92772 4.22992 4.83975 4.11304H4.84413C4.91925 4.11304 4.9801 4.05226 4.9801 3.97707C4.9801 3.90195 4.91933 3.8411 4.84413 3.8411H4.83975C4.92779 3.72422 4.98003 3.58208 4.98003 3.43319C4.9796 3.20926 4.93683 3.02787 4.90254 2.88236ZM3.52276 2.30296C3.47447 2.15803 3.49133 2.07544 3.52319 2.04645C3.54399 2.02679 3.57556 2.02758 3.59558 2.03662C3.62012 2.04753 3.62012 2.06482 3.62012 2.07329C3.62012 2.14841 3.6809 2.20926 3.75609 2.20926C3.83122 2.20926 3.89206 2.14848 3.89206 2.07329C3.89206 2.06482 3.89206 2.04753 3.9166 2.03662C3.93626 2.02758 3.96761 2.02679 3.989 2.04645C4.02085 2.07544 4.03772 2.15803 3.98943 2.30296C3.95427 2.40808 3.82705 2.68174 3.75616 2.83027C3.68671 2.68518 3.55813 2.4088 3.52276 2.30296ZM3.75602 7.91285C3.79505 7.96588 3.83918 8.01524 3.89285 8.05542C3.83918 8.09568 3.79505 8.14497 3.75602 8.19799C3.71699 8.14497 3.67286 8.0956 3.61919 8.05542C3.67286 8.01517 3.71699 7.96595 3.75602 7.91285ZM3.75602 16.0704C3.79505 16.1234 3.83918 16.1728 3.89285 16.213C3.83918 16.2532 3.79505 16.3025 3.75602 16.3556C3.71699 16.3025 3.67286 16.2532 3.61919 16.213C3.67286 16.1727 3.71699 16.1236 3.75602 16.0704ZM3.98921 21.9655C4.0375 22.1105 4.02064 22.193 3.98878 22.222C3.9674 22.2414 3.93604 22.2406 3.91638 22.2319C3.89185 22.221 3.89185 22.2037 3.89185 22.1952C3.89185 22.1201 3.83107 22.0592 3.75588 22.0592C3.68068 22.0592 3.61991 22.12 3.61991 22.1952C3.61991 22.2037 3.61991 22.221 3.59537 22.2319C3.57542 22.2406 3.54385 22.2415 3.52297 22.222C3.49111 22.193 3.47425 22.1105 3.52254 21.9655C3.5577 21.8604 3.68491 21.5867 3.7558 21.4382C3.82526 21.5832 3.95384 21.8597 3.98921 21.9655ZM3.89156 20.2918C3.84011 20.3318 3.79448 20.3797 3.75602 20.4339C3.71763 20.3797 3.67193 20.3319 3.62048 20.2918C3.67193 20.2517 3.71756 20.2038 3.75602 20.1496C3.79441 20.2038 3.84004 20.2517 3.89156 20.2918ZM4.6207 17.1955L3.75595 19.1411L2.8912 17.1955C2.8343 17.0675 2.80424 16.926 2.80424 16.786C2.80424 16.5903 2.91775 16.419 3.08041 16.3694C3.21257 16.3285 3.3489 16.3505 3.45423 16.4286C3.55956 16.5065 3.61998 16.6261 3.61998 16.7568C3.61998 16.9204 3.51508 16.9745 3.46995 16.9902C3.39985 17.0147 3.33319 17.0006 3.31181 16.9732C3.29358 16.9501 3.29552 16.8869 3.36067 16.7843C3.40107 16.7211 3.38263 16.637 3.31927 16.5966C3.25577 16.5568 3.17203 16.5754 3.13157 16.6384C2.95793 16.9106 3.05056 17.081 3.09849 17.1419C3.19693 17.2662 3.38212 17.3089 3.55921 17.247C3.57937 17.24 3.59982 17.2314 3.61998 17.2211V17.5649C3.61998 17.5649 3.61976 17.5647 3.61976 17.5647C3.61567 17.4931 3.55641 17.4366 3.48408 17.4366C3.40896 17.4366 3.34811 17.4974 3.34811 17.5726C3.34811 17.6613 3.41011 17.8151 3.61998 17.8628V18.1164C3.61998 18.1915 3.68075 18.2524 3.75595 18.2524C3.83114 18.2524 3.89192 18.1916 3.89192 18.1164V17.8628C4.10179 17.8151 4.16378 17.6613 4.16378 17.5726C4.16378 17.4975 4.10315 17.4322 4.0281 17.4322C3.95298 17.4322 3.89242 17.4885 3.89242 17.5636C3.89235 17.5639 3.89192 17.5642 3.89185 17.5644V17.2212C3.91201 17.2315 3.93246 17.2402 3.95262 17.2471C4.1297 17.309 4.31482 17.2662 4.41334 17.142C4.46127 17.0813 4.55397 16.9108 4.38026 16.6385C4.33986 16.5753 4.25598 16.5567 4.19256 16.5968C4.1292 16.6372 4.11076 16.7213 4.15115 16.7845C4.21631 16.887 4.21824 16.9502 4.20002 16.9733C4.17849 17.0007 4.11184 17.0147 4.04188 16.9903C3.99675 16.9747 3.89185 16.9205 3.89185 16.7569C3.89185 16.6263 3.95226 16.5065 4.05759 16.4287C4.16314 16.3507 4.29975 16.3284 4.43142 16.3696C4.59401 16.4192 4.70759 16.5905 4.70759 16.7861C4.70773 16.926 4.67774 17.0675 4.6207 17.1955ZM4.6207 15.2305C4.6776 15.3585 4.70766 15.5 4.70766 15.64C4.70766 15.8357 4.59415 16.0069 4.43149 16.0566C4.29954 16.0978 4.16299 16.0754 4.05766 15.9974C3.95233 15.9195 3.89192 15.7998 3.89192 15.6692C3.89192 15.5056 3.99682 15.4515 4.04195 15.4358C4.11191 15.4113 4.17864 15.4254 4.20009 15.4528C4.21831 15.4759 4.21638 15.5391 4.15123 15.6416C4.11083 15.7048 4.12927 15.7889 4.19263 15.8293C4.25649 15.8697 4.34029 15.8511 4.38033 15.7876C4.55397 15.5154 4.46134 15.3449 4.41341 15.2841C4.31489 15.1598 4.12977 15.1176 3.95269 15.179C3.93253 15.1859 3.91208 15.1947 3.89192 15.2049V14.861L3.89213 14.8614C3.89622 14.9328 3.95549 14.9894 4.02781 14.9894C4.10294 14.9894 4.16378 14.9286 4.16378 14.8534C4.16378 14.7648 4.10179 14.6109 3.89192 14.5633V14.3096C3.89192 14.2345 3.83114 14.1737 3.75595 14.1737C3.68075 14.1737 3.61998 14.2344 3.61998 14.3096V14.5633C3.41011 14.6109 3.34811 14.7648 3.34811 14.8534C3.34811 14.9286 3.40874 14.9939 3.48379 14.9939C3.55892 14.9939 3.61948 14.9375 3.61948 14.8624C3.61955 14.8622 3.61998 14.8618 3.61998 14.8618L3.62005 15.2048C3.59989 15.1945 3.57944 15.1859 3.55928 15.1789C3.38219 15.1176 3.197 15.1598 3.09856 15.284C3.05063 15.3448 2.95793 15.5153 3.13164 15.7875C3.17203 15.8507 3.25591 15.8691 3.31934 15.8293C3.3827 15.7889 3.40114 15.7047 3.36074 15.6416C3.29559 15.539 3.29365 15.4758 3.31188 15.4527C3.33326 15.4254 3.39992 15.4113 3.47002 15.4357C3.51515 15.4513 3.62005 15.5055 3.62005 15.6691C3.62005 15.7998 3.55964 15.9195 3.4543 15.9973C3.34876 16.0754 3.21243 16.0977 3.08048 16.0565C2.91789 16.0068 2.80431 15.8356 2.80431 15.6399C2.80431 15.4999 2.8343 15.3584 2.89127 15.2304L3.75602 13.2848L4.6207 15.2305ZM3.89156 12.1343C3.84011 12.1743 3.79448 12.2222 3.75602 12.2764C3.71763 12.2222 3.67193 12.1744 3.62048 12.1343C3.67193 12.0942 3.71756 12.0463 3.75602 11.9921C3.79441 12.0462 3.84004 12.0942 3.89156 12.1343ZM4.6207 9.03799L3.75595 10.9836L2.8912 9.03799C2.8343 8.90998 2.80424 8.76849 2.80424 8.6285C2.80424 8.43276 2.91775 8.26156 3.08041 8.21191C3.21257 8.17101 3.3489 8.19304 3.45423 8.27111C3.55956 8.34896 3.61998 8.46864 3.61998 8.5993C3.61998 8.76289 3.51508 8.81699 3.46995 8.83271C3.39985 8.85739 3.33319 8.84311 3.31181 8.8157C3.29358 8.7926 3.29552 8.72938 3.36067 8.62685C3.40107 8.56364 3.38263 8.47947 3.31927 8.43915C3.25577 8.39911 3.17203 8.41762 3.13157 8.48091C2.95793 8.75313 3.05056 8.92354 3.09849 8.98439C3.19693 9.10866 3.38212 9.15114 3.55921 9.0895C3.57937 9.08254 3.59982 9.07386 3.61998 9.0636V9.40743L3.61976 9.407C3.61567 9.33561 3.55641 9.279 3.48408 9.279C3.40896 9.279 3.34811 9.33977 3.34811 9.41497C3.34811 9.50365 3.41011 9.65749 3.61998 9.70513V9.95877C3.61998 10.0339 3.68075 10.0947 3.75595 10.0947C3.83114 10.0947 3.89192 10.034 3.89192 9.95877V9.70513C4.10179 9.65749 4.16378 9.50365 4.16378 9.41497C4.16378 9.33985 4.10315 9.27448 4.0281 9.27448C3.95298 9.27448 3.89242 9.3308 3.89242 9.40593C3.89235 9.40614 3.89192 9.4065 3.89192 9.4065L3.89185 9.06353C3.91201 9.07379 3.93246 9.08247 3.95262 9.08943C4.1297 9.151 4.31482 9.10852 4.41334 8.98432C4.46127 8.92354 4.55397 8.75306 4.38026 8.48084C4.33986 8.41734 4.25598 8.39883 4.19256 8.43908C4.1292 8.47947 4.11076 8.56364 4.15115 8.62678C4.21631 8.72931 4.21824 8.79253 4.20002 8.81563C4.17849 8.84297 4.11184 8.85739 4.04188 8.83263C3.99675 8.81699 3.89185 8.76282 3.89185 8.59923C3.89185 8.46857 3.95226 8.34881 4.05759 8.27104C4.16314 8.19297 4.29975 8.17094 4.43142 8.21184C4.59401 8.26149 4.70759 8.43276 4.70759 8.62843C4.70773 8.76849 4.67774 8.90998 4.6207 9.03799ZM4.6207 7.07293C4.6776 7.20093 4.70766 7.34243 4.70766 7.48242C4.70766 7.67815 4.59415 7.84935 4.43149 7.899C4.29954 7.94019 4.16299 7.91787 4.05766 7.83981C3.95233 7.76196 3.89192 7.64228 3.89192 7.51162C3.89192 7.34802 3.99682 7.29392 4.04195 7.27821C4.11191 7.25374 4.17864 7.26781 4.20009 7.29522C4.21831 7.31832 4.21638 7.38153 4.15123 7.48407C4.11083 7.54728 4.12927 7.63137 4.19263 7.67177C4.25649 7.7118 4.34029 7.69351 4.38033 7.63001C4.55397 7.35778 4.46134 7.18737 4.41341 7.12653C4.31489 7.00225 4.12977 6.95978 3.95269 7.02141C3.93253 7.02837 3.91208 7.03705 3.89192 7.04731V6.70348C3.89192 6.70355 3.89213 6.7037 3.89213 6.7037C3.89622 6.7753 3.95549 6.83177 4.02781 6.83177C4.10294 6.83177 4.16378 6.771 4.16378 6.6958C4.16378 6.60712 4.10179 6.45328 3.89192 6.40564V6.152C3.89192 6.07688 3.83114 6.01603 3.75595 6.01603C3.68075 6.01603 3.61998 6.0768 3.61998 6.152V6.40564C3.41011 6.45328 3.34811 6.60712 3.34811 6.6958C3.34811 6.77093 3.40874 6.83629 3.48379 6.83629C3.55892 6.83629 3.61948 6.77997 3.61948 6.70484C3.61955 6.70463 3.61998 6.70427 3.62005 6.70406V7.04724C3.59989 7.03698 3.57944 7.0283 3.55928 7.02134C3.38219 6.95978 3.197 7.00225 3.09856 7.12646C3.05063 7.18723 2.95793 7.35771 3.13164 7.62994C3.17203 7.69315 3.25591 7.71152 3.31934 7.6717C3.3827 7.6313 3.40114 7.54714 3.36074 7.48399C3.29559 7.38146 3.29365 7.31825 3.31188 7.29514C3.33326 7.26781 3.39992 7.25374 3.47002 7.27814C3.51515 7.29378 3.62005 7.34795 3.62005 7.51155C3.62005 7.64221 3.55964 7.76196 3.4543 7.83974C3.34876 7.9178 3.21243 7.94012 3.08048 7.89893C2.91789 7.84928 2.80431 7.67801 2.80431 7.48234C2.80431 7.34236 2.8343 7.20086 2.89127 7.07286L3.75602 5.12724L4.6207 7.07293ZM3.62041 3.97671C3.67186 3.93667 3.71749 3.88874 3.75595 3.83457C3.79433 3.88874 3.84004 3.9366 3.89149 3.97671C3.84004 4.01675 3.79441 4.06468 3.75595 4.11885C3.71756 4.06468 3.67193 4.01675 3.62041 3.97671Z" fill="#FFE15A"/>
<path d="M20.0584 13.8021C21.8657 13.8021 23.3307 12.337 23.3307 10.5298C23.3307 8.72256 21.8657 7.25751 20.0584 7.25751C18.2512 7.25751 16.7861 8.72256 16.7861 10.5298C16.7861 12.337 18.2512 13.8021 20.0584 13.8021Z" fill="#FFE15A"/>
<path d="M20.3044 6.35777C20.3044 6.49331 20.1945 6.60324 20.0589 6.60324C19.9234 6.60324 19.8135 6.49331 19.8135 6.35777C19.8135 6.22223 20.0589 5.62146 20.0589 5.62146C20.0589 5.62146 20.3044 6.22223 20.3044 6.35777Z" fill="#FFE15A"/>
<path d="M19.8135 14.7027C19.8135 14.5671 19.9234 14.4572 20.0589 14.4572C20.1945 14.4572 20.3044 14.5671 20.3044 14.7027C20.3044 14.8382 20.0589 15.439 20.0589 15.439C20.0589 15.439 19.8135 14.8383 19.8135 14.7027Z" fill="#FFE15A"/>
<path d="M24.2308 10.7756C24.0953 10.7756 23.9854 10.6657 23.9854 10.5301C23.9854 10.3946 24.0953 10.2847 24.2308 10.2847C24.3664 10.2847 24.9671 10.5301 24.9671 10.5301C24.9671 10.5301 24.3664 10.7756 24.2308 10.7756Z" fill="#FFE15A"/>
<path d="M15.8857 10.2847C16.0213 10.2847 16.1312 10.3947 16.1312 10.5302C16.1312 10.6657 16.0213 10.7757 15.8857 10.7757C15.7502 10.7757 15.1494 10.5302 15.1494 10.5302C15.1494 10.5302 15.7502 10.2847 15.8857 10.2847Z" fill="#FFE15A"/>
<path d="M23.1827 7.75347C23.0869 7.84933 22.9315 7.84933 22.8356 7.75347C22.7397 7.65761 22.7397 7.50227 22.8356 7.40634C22.9315 7.31041 23.5298 7.0592 23.5298 7.0592C23.5298 7.0592 23.2787 7.65761 23.1827 7.75347Z" fill="#FFE15A"/>
<path d="M16.935 13.3071C17.0308 13.2113 17.1862 13.2113 17.2821 13.3071C17.378 13.403 17.3779 13.5583 17.2821 13.6543C17.1862 13.7502 16.5879 14.0013 16.5879 14.0013C16.5879 14.0013 16.8391 13.4031 16.935 13.3071Z" fill="#FFE15A"/>
<path d="M22.8356 13.6543C22.7397 13.5584 22.7397 13.4031 22.8356 13.3072C22.9314 13.2112 23.0868 13.2113 23.1827 13.3072C23.2786 13.403 23.5298 14.0013 23.5298 14.0013C23.5298 14.0013 22.9314 13.7501 22.8356 13.6543Z" fill="#FFE15A"/>
<path d="M17.2822 7.40627C17.378 7.50212 17.378 7.65747 17.2822 7.7534C17.1863 7.84933 17.031 7.84926 16.935 7.7534C16.8391 7.65754 16.5879 7.0592 16.5879 7.0592C16.5879 7.0592 17.1863 7.31048 17.2822 7.40627Z" fill="#FFE15A"/>
<path d="M18.6883 6.58142C18.7401 6.7067 18.6807 6.8502 18.5554 6.90208C18.4301 6.95395 18.2866 6.89447 18.2347 6.7692C18.1828 6.64392 18.1797 5.995 18.1797 5.995C18.1797 5.995 18.6364 6.45614 18.6883 6.58142Z" fill="#FFE15A"/>
<path d="M21.4289 14.479C21.377 14.3537 21.4365 14.2102 21.5618 14.1583C21.6871 14.1065 21.8306 14.1659 21.8824 14.2912C21.9343 14.4165 21.9375 15.0654 21.9375 15.0654C21.9375 15.0654 21.4807 14.6043 21.4289 14.479Z" fill="#FFE15A"/>
<path d="M24.0074 9.16031C23.8821 9.21218 23.7386 9.1527 23.6867 9.02742C23.6348 8.90215 23.6943 8.75864 23.8196 8.70677C23.9449 8.65489 24.5937 8.65173 24.5937 8.65173C24.5937 8.65173 24.1327 9.10836 24.0074 9.16031Z" fill="#FFE15A"/>
<path d="M16.1099 11.9001C16.2351 11.8482 16.3786 11.9077 16.4305 12.033C16.4824 12.1583 16.4229 12.3018 16.2976 12.3536C16.1724 12.4055 15.5234 12.4087 15.5234 12.4087C15.5234 12.4087 15.9846 11.952 16.1099 11.9001Z" fill="#FFE15A"/>
<path d="M21.8824 6.76912C21.8305 6.8944 21.687 6.95381 21.5618 6.902C21.4365 6.85013 21.3771 6.70655 21.4289 6.58135C21.4807 6.45614 21.9374 5.995 21.9374 5.995C21.9374 5.995 21.9343 6.64391 21.8824 6.76912Z" fill="#FFE15A"/>
<path d="M18.2356 14.2912C18.2875 14.1659 18.4311 14.1065 18.5563 14.1583C18.6816 14.2102 18.741 14.3538 18.6892 14.479C18.6373 14.6042 18.1807 15.0653 18.1807 15.0653C18.1807 15.0653 18.1837 14.4165 18.2356 14.2912Z" fill="#FFE15A"/>
<path d="M23.8196 12.3536C23.6943 12.3017 23.6349 12.1582 23.6867 12.0329C23.7386 11.9077 23.8821 11.8483 24.0073 11.9001C24.1325 11.9519 24.5937 12.4086 24.5937 12.4086C24.5937 12.4086 23.9447 12.4056 23.8196 12.3536Z" fill="#FFE15A"/>
<path d="M16.2976 8.70682C16.4228 8.75869 16.4823 8.90227 16.4304 9.02747C16.3786 9.15268 16.235 9.21216 16.1098 9.16036C15.9846 9.10848 15.5234 8.65186 15.5234 8.65186C15.5234 8.65186 16.1724 8.65487 16.2976 8.70682Z" fill="#FFE15A"/>
<path d="M19.4852 6.38996C19.5117 6.52291 19.4253 6.65214 19.2923 6.67854C19.1594 6.70502 19.0301 6.6187 19.0037 6.48567C18.9772 6.35272 19.1008 5.71564 19.1008 5.71564C19.1008 5.71564 19.4587 6.257 19.4852 6.38996Z" fill="#FFE15A"/>
<path d="M20.6317 14.6703C20.6053 14.5374 20.6916 14.4081 20.8246 14.3817C20.9576 14.3553 21.0868 14.4416 21.1132 14.5746C21.1397 14.7076 21.0161 15.3446 21.0161 15.3446C21.0161 15.3446 20.6581 14.8033 20.6317 14.6703Z" fill="#FFE15A"/>
<path d="M24.1986 9.95692C24.0657 9.98339 23.9365 9.89707 23.91 9.76405C23.8836 9.63102 23.9699 9.50186 24.1029 9.47546C24.2359 9.44898 24.873 9.57254 24.873 9.57254C24.873 9.57254 24.3316 9.93051 24.1986 9.95692Z" fill="#FFE15A"/>
<path d="M15.9185 11.1036C16.0514 11.0771 16.1806 11.1634 16.207 11.2965C16.2335 11.4295 16.1472 11.5586 16.0142 11.585C15.8812 11.6115 15.2441 11.488 15.2441 11.488C15.2441 11.488 15.7855 11.13 15.9185 11.1036Z" fill="#FFE15A"/>
<path d="M22.5814 7.19726C22.5061 7.30998 22.3536 7.34026 22.2409 7.26492C22.1282 7.18958 22.0979 7.03718 22.1733 6.92446C22.2485 6.81174 22.7864 6.44861 22.7864 6.44861C22.7864 6.44861 22.6566 7.08447 22.5814 7.19726Z" fill="#FFE15A"/>
<path d="M17.536 13.8631C17.6113 13.7504 17.7638 13.7201 17.8765 13.7955C17.9892 13.8707 18.0195 14.0232 17.9442 14.1359C17.8689 14.2486 17.3311 14.6118 17.3311 14.6118C17.3311 14.6118 17.4608 13.9759 17.536 13.8631Z" fill="#FFE15A"/>
<path d="M23.3913 13.0525C23.2786 12.9772 23.2483 12.8247 23.3237 12.712C23.399 12.5993 23.5514 12.569 23.6641 12.6443C23.7768 12.7196 24.14 13.2574 24.14 13.2574C24.14 13.2574 23.504 13.1277 23.3913 13.0525Z" fill="#FFE15A"/>
<path d="M16.7262 8.00803C16.8389 8.0833 16.8692 8.23577 16.7939 8.34849C16.7186 8.46122 16.5661 8.49149 16.4534 8.41615C16.3407 8.34082 15.9775 7.80304 15.9775 7.80304C15.9775 7.80304 16.6135 7.93277 16.7262 8.00803Z" fill="#FFE15A"/>
<path d="M17.9442 6.92451C18.0194 7.03723 17.9892 7.18963 17.8765 7.26497C17.7639 7.34031 17.6114 7.30996 17.536 7.19731C17.4608 7.08459 17.3311 6.44873 17.3311 6.44873C17.3311 6.44873 17.8689 6.81186 17.9442 6.92451Z" fill="#FFE15A"/>
<path d="M22.1722 14.1359C22.097 14.0231 22.1272 13.8707 22.2399 13.7954C22.3525 13.7201 22.505 13.7504 22.5804 13.8631C22.6556 13.9758 22.7854 14.6116 22.7854 14.6116C22.7854 14.6116 22.2476 14.2485 22.1722 14.1359Z" fill="#FFE15A"/>
<path d="M23.6641 8.41616C23.5513 8.49142 23.3989 8.46114 23.3236 8.34849C23.2483 8.23577 23.2786 8.08337 23.3913 8.00803C23.504 7.93277 24.1399 7.80304 24.1399 7.80304C24.1399 7.80304 23.7768 8.34089 23.6641 8.41616Z" fill="#FFE15A"/>
<path d="M16.4533 12.6443C16.566 12.569 16.7184 12.5993 16.7938 12.7119C16.8691 12.8247 16.8388 12.9771 16.7261 13.0524C16.6134 13.1277 15.9775 13.2574 15.9775 13.2574C15.9775 13.2574 16.3406 12.7195 16.4533 12.6443Z" fill="#FFE15A"/>
<path d="M21.1132 6.48567C21.0867 6.61863 20.9575 6.70502 20.8246 6.67854C20.6916 6.65206 20.6052 6.52291 20.6317 6.38996C20.6582 6.257 21.0161 5.71564 21.0161 5.71564C21.0161 5.71564 21.1396 6.35272 21.1132 6.48567Z" fill="#FFE15A"/>
<path d="M19.0037 14.5746C19.0302 14.4416 19.1593 14.3552 19.2923 14.3817C19.4252 14.4082 19.5116 14.5374 19.4852 14.6703C19.4587 14.8033 19.1008 15.3446 19.1008 15.3446C19.1008 15.3446 18.9773 14.7075 19.0037 14.5746Z" fill="#FFE15A"/>
<path d="M24.1029 11.585C23.97 11.5586 23.8836 11.4294 23.91 11.2965C23.9365 11.1635 24.0657 11.0771 24.1986 11.1036C24.3316 11.1301 24.8729 11.488 24.8729 11.488C24.8729 11.488 24.2359 11.6114 24.1029 11.585Z" fill="#FFE15A"/>
<path d="M16.0142 9.47544C16.1471 9.50192 16.2335 9.63107 16.207 9.76403C16.1806 9.89699 16.0514 9.98337 15.9185 9.9569C15.7855 9.93042 15.2441 9.57252 15.2441 9.57252C15.2441 9.57252 15.8812 9.44904 16.0142 9.47544Z" fill="#FFE15A"/>
<path d="M27.7563 11.3912C27.6605 11.3508 27.5509 11.3971 27.5109 11.4923C27.5109 11.4928 27.5109 11.4928 27.5109 11.4928C27.5102 11.4946 27.5065 11.5034 27.5001 11.5185C27.3583 11.8498 27.0648 12.3341 26.7685 12.7896C27.0445 11.9011 27.2968 10.9521 27.3144 10.8854C27.3407 10.7857 27.2818 10.6834 27.1822 10.6564C27.0826 10.6296 26.9801 10.6876 26.9522 10.7868C26.8234 11.2483 26.56 11.8557 26.317 12.3699C26.3616 11.7966 26.3699 11.2655 26.3705 11.227C26.372 11.1255 26.2925 11.0415 26.1909 11.0367C26.0954 11.0397 26.0033 11.1093 25.9958 11.2108C25.7555 14.5162 22.5748 15.9949 22.2651 16.1309C22.1031 16.1471 21.3483 16.2321 20.6633 16.47C20.5857 16.4969 20.5195 16.524 20.4537 16.5508C20.4292 16.5416 20.403 16.5365 20.3753 16.5381C18.2729 16.6902 16.5965 15.8278 15.3916 13.98C14.4813 12.5839 14.1958 11.1184 14.193 11.1038C14.1738 11.0019 14.0762 10.9363 13.9739 10.9543C13.872 10.9737 13.805 11.0715 13.8243 11.1734C13.832 11.2139 13.9572 11.8535 14.3022 12.6954C13.8406 11.9668 13.519 11.0841 13.4058 10.6244C13.4035 10.6152 13.3976 10.6082 13.3941 10.5998C13.3888 10.5868 13.3844 10.5737 13.3765 10.5624C13.371 10.5545 13.3638 10.5487 13.3572 10.5417C13.347 10.5309 13.3372 10.5203 13.3246 10.5121C13.3174 10.5075 13.3094 10.5052 13.3016 10.5015C13.2877 10.4951 13.2742 10.4887 13.2587 10.4857C13.248 10.4837 13.2371 10.485 13.226 10.4848C13.2148 10.4847 13.2041 10.4818 13.1926 10.4838C13.1901 10.4842 13.1881 10.486 13.1856 10.4865C13.1832 10.487 13.1809 10.4862 13.1784 10.4867C13.1684 10.4892 13.1607 10.4955 13.1515 10.4994C13.1398 10.5045 13.1279 10.5083 13.1176 10.5154C13.1075 10.5224 13.0999 10.5314 13.0916 10.5401C13.0832 10.5487 13.0744 10.5563 13.0678 10.5663C13.0611 10.5764 13.0575 10.5878 13.0528 10.5991C13.0483 10.6101 13.043 10.6204 13.0407 10.6323C13.0382 10.6444 13.0393 10.6569 13.0394 10.6696C13.0394 10.6797 13.0366 10.6894 13.0384 10.6997C13.0391 10.7042 13.0405 10.7086 13.0413 10.7129V10.7136C13.0415 10.7144 13.0418 10.7155 13.042 10.7164C13.1581 11.4004 13.4348 12.1094 13.685 12.6501C13.2877 12.1993 12.9557 11.6799 12.8381 11.3723C12.8347 11.3633 12.8279 11.3571 12.8233 11.3491C12.8163 11.3366 12.8102 11.3239 12.8008 11.3137C12.7941 11.3064 12.786 11.3016 12.7784 11.2955C12.767 11.2863 12.7562 11.2771 12.743 11.2708C12.7345 11.2668 12.7253 11.2655 12.7164 11.2627C12.7025 11.2585 12.6891 11.2539 12.6744 11.253C12.6628 11.2522 12.6514 11.2551 12.6397 11.2566C12.6288 11.258 12.6181 11.2566 12.6074 11.26C12.6053 11.2607 12.6039 11.2623 12.6019 11.263C12.5999 11.2637 12.5979 11.2632 12.5959 11.264C12.5857 11.2679 12.5785 11.2754 12.5693 11.2808C12.5587 11.2871 12.5472 11.2924 12.5381 11.3006C12.5288 11.3089 12.5223 11.3194 12.515 11.3293C12.5081 11.3387 12.5003 11.3471 12.4952 11.3576C12.4898 11.3686 12.4878 11.3805 12.4847 11.3923C12.4816 11.4039 12.4775 11.4146 12.4767 11.4268C12.4759 11.4389 12.4789 11.451 12.4804 11.4633C12.4818 11.4739 12.4804 11.4845 12.4837 11.4949C12.6879 12.1536 13.1789 12.9373 13.5637 13.4893C13.2431 13.2423 13.0075 12.9751 12.9391 12.8944C12.9317 12.8857 12.9244 12.8769 12.9171 12.8681C12.8509 12.7885 12.734 12.7772 12.6539 12.8421C12.574 12.9073 12.5615 13.0247 12.626 13.1048C12.6295 13.1093 12.6436 13.1268 12.6671 13.1543C12.9487 13.4893 13.2554 13.802 13.5333 14.0659L13.1532 13.9039C13.0665 13.8665 12.9646 13.9003 12.9172 13.9827C12.8697 14.0652 12.8912 14.1696 12.9672 14.2268C13.0042 14.2543 13.6774 14.7572 14.2602 15.0544C14.2052 15.0577 14.1407 15.0537 14.0685 15.0482C13.9804 15.0397 13.8937 15.1028 13.8723 15.1922C13.8512 15.282 13.8981 15.3737 13.9834 15.4088C13.9977 15.4147 14.1753 15.488 14.3946 15.566C14.3434 15.5869 14.3027 15.6298 14.2859 15.6855C14.2606 15.7687 14.2961 15.8589 14.3716 15.9021C14.3913 15.9135 14.6565 16.0656 14.9848 16.2005C14.976 16.214 14.9689 16.2287 14.9635 16.2448C14.9378 16.3236 14.9671 16.4101 15.0355 16.4574C15.0925 16.4966 16.3672 17.3616 17.8558 17.3616C17.9536 17.3616 18.0523 17.358 18.1516 17.3499C18.2548 17.3418 18.332 17.2513 18.3237 17.1479C18.3155 17.0445 18.2259 16.9665 18.1216 16.976C17.1864 17.0523 16.2854 16.7011 15.7496 16.4328C15.8203 16.4155 15.861 16.3998 15.8711 16.3958C15.9538 16.362 16.0014 16.2752 15.9853 16.1875C15.9691 16.1 15.8937 16.0358 15.8044 16.0339C15.5869 16.0295 15.2856 15.9236 15.026 15.8099C15.1241 15.7608 15.1813 15.7138 15.1863 15.7098C15.2428 15.6625 15.2666 15.5871 15.2474 15.516C15.228 15.4452 15.1689 15.392 15.0964 15.3803C15.0167 15.3671 14.9173 15.3415 14.8133 15.31C14.9145 15.2517 14.9575 15.1875 14.974 15.1549C15.0001 15.1029 15.0006 15.042 14.9757 14.9896C14.9506 14.9372 14.9028 14.8994 14.8459 14.8873C14.7968 14.8766 14.7412 14.8587 14.6811 14.8352C14.6921 14.8243 14.7022 14.8118 14.7104 14.7975C14.7582 14.7165 14.7385 14.6124 14.6643 14.5541C14.6604 14.5512 14.5147 14.4369 14.2942 14.2466C14.3292 14.2338 14.3601 14.2099 14.3825 14.1777C14.4298 14.1095 14.4266 14.0183 14.3746 13.9537C14.3705 13.9485 14.2246 13.7651 14.0235 13.4866C14.0899 13.5381 14.1562 13.5908 14.2225 13.6334C14.2537 13.6532 14.289 13.6631 14.324 13.6631C14.3715 13.6631 14.4184 13.6452 14.4545 13.6103C14.4693 13.596 14.4809 13.5794 14.4901 13.5619C14.604 13.6835 14.7236 13.7939 14.8492 13.8881C14.8656 13.9004 14.8855 13.9002 14.9039 13.9064C14.9571 13.9956 15.0125 14.085 15.0706 14.1744C16.2102 15.9279 17.8171 16.8671 19.7443 16.9235C19.5669 17.0313 19.3743 17.1426 19.0692 17.2614C19.0027 17.2874 18.9438 17.3134 18.8847 17.3394C18.8561 17.345 18.8294 17.3554 18.8071 17.3731C18.2747 17.6196 18.0542 17.8631 17.9648 18.0334C17.8756 18.2028 17.9526 18.3765 18.0616 18.4667C18.0954 18.4945 18.1385 18.5088 18.1817 18.5088C18.2114 18.5088 18.2412 18.5022 18.2681 18.4886C18.3344 18.4556 18.3788 18.3856 18.3758 18.312C18.3835 18.3036 18.4162 18.2764 18.5184 18.2731C18.593 18.2668 18.7499 18.2837 18.933 18.2983C19.1072 18.3127 19.3161 18.329 19.5383 18.3404C19.3993 18.5024 19.2378 18.6902 19.2378 18.6902C19.1893 18.7466 19.1786 18.8265 19.2109 18.8936C19.2433 18.961 19.3132 19.0029 19.3865 19.0002C19.5348 18.995 19.6355 18.9921 19.7017 18.9907C19.7593 19.0663 19.8302 19.0963 19.8758 19.108C20.0049 19.141 20.1335 19.0893 20.2304 19.0281C20.3037 19.0809 20.3771 19.1032 20.4352 19.1117C20.5662 19.1296 20.6875 19.0915 20.7753 19.0483C20.8662 19.107 20.9552 19.122 21.0231 19.122C21.024 19.122 21.0251 19.122 21.0262 19.122C21.1726 19.1212 21.3008 19.0505 21.3914 18.9812C21.4715 19.0288 21.5481 19.0442 21.6073 19.0468C21.7417 19.0516 21.8531 18.9999 21.9271 18.9515C22.1916 19.0046 22.4195 18.88 22.5702 18.7425C22.6389 18.7825 22.7043 18.7924 22.7564 18.7898C22.8904 18.7851 22.9924 18.7037 23.0579 18.6308C23.3578 18.667 23.5729 18.6117 23.6973 18.464C23.7651 18.3837 23.7926 18.2932 23.8001 18.2107C24.632 18.206 24.7073 17.7518 24.7134 17.6957C24.7188 17.6447 24.7033 17.5938 24.6702 17.5546C24.6372 17.5154 24.5893 17.4912 24.5382 17.4883L22.3572 17.3571C22.266 17.3505 22.1845 17.4117 22.1634 17.5008C22.1629 17.5022 22.1258 17.6408 22.0095 17.7516C21.8529 17.901 21.6008 17.98 21.3267 18.0218C21.3277 17.9967 21.3242 17.9711 21.3146 17.9462C21.2772 17.8495 21.1683 17.8025 21.0719 17.8388C20.6217 18.0135 19.8927 17.9916 19.3224 17.9519C19.4098 17.8804 19.5152 17.8096 19.5993 17.7634C19.6704 17.7242 19.7086 17.644 19.6935 17.5641C19.6826 17.5061 19.6407 17.4657 19.59 17.4397C19.7486 17.3596 19.8786 17.2823 20.0019 17.2071C20.216 17.0759 20.4183 16.9523 20.7867 16.8244C21.4977 16.5774 22.3207 16.5022 22.3289 16.5015C22.3476 16.5 22.3659 16.4952 22.3833 16.4883C22.4126 16.4761 24.7337 15.5038 25.8273 13.2601C25.8129 13.3279 25.7976 13.3899 25.7809 13.4441C25.7523 13.5365 25.7984 13.6351 25.8875 13.6724C25.9564 13.7014 26.0347 13.6863 26.0877 13.6372C26.0186 13.8194 25.9561 13.9627 25.9051 14.0473C25.8531 14.1335 25.8782 14.2453 25.9619 14.301C25.9816 14.3138 26.0026 14.3226 26.0242 14.3277C25.9395 14.4517 25.8537 14.5689 25.7681 14.6763C25.7111 14.7478 25.7144 14.8497 25.774 14.9172C25.627 15.0711 25.4967 15.1979 25.3977 15.2786C25.3331 15.331 25.312 15.4186 25.3417 15.4934C25.2462 15.548 25.1678 15.5866 25.1134 15.603C25.0221 15.6305 24.9661 15.7225 24.9833 15.8163C24.9922 15.8658 25.0201 15.9076 25.0585 15.9351C24.9438 15.9658 24.8182 15.9955 24.6819 16.0226C24.6051 16.0379 24.5459 16.0992 24.5333 16.1765C24.5209 16.2538 24.5576 16.3308 24.6255 16.3697C24.6313 16.373 24.6954 16.4093 24.7936 16.451C24.4305 16.5972 23.7823 16.7882 22.7186 16.8931C22.6156 16.9033 22.5401 16.9954 22.5503 17.0984C22.5604 17.2014 22.6495 17.2729 22.7556 17.267C24.7748 17.0672 25.3984 16.5618 25.4238 16.5401C25.4821 16.4913 25.5052 16.4118 25.4821 16.3393C25.4667 16.2913 25.433 16.2525 25.3897 16.23C26.0348 16.027 26.3118 15.8022 26.3263 15.7902C26.397 15.7315 26.4148 15.63 26.3682 15.5505C26.3213 15.4709 26.2236 15.4365 26.1384 15.4709C26.1144 15.4801 26.0761 15.4895 26.0277 15.4991C26.4606 15.2026 26.9202 14.8495 27.1223 14.692C27.1579 14.6656 27.1901 14.6402 27.2186 14.6164C27.297 14.5505 27.308 14.4338 27.2432 14.3544C27.1789 14.2752 27.0618 14.262 26.9815 14.3254C26.9522 14.3485 26.9217 14.3723 26.8902 14.3968C26.7969 14.4662 26.6776 14.5446 26.5475 14.6252C27.0388 14.0673 27.5335 13.4625 27.6747 13.2888C27.6876 13.273 27.7002 13.2573 27.7131 13.2415C27.7779 13.1609 27.7653 13.0428 27.6847 12.978C27.6038 12.912 27.4856 12.9256 27.4209 13.0058L27.4205 13.0062L27.4203 13.0067C27.4168 13.0107 27.4009 13.0305 27.3742 13.0635C27.2262 13.2442 27.0703 13.4191 26.9165 13.5825C27.4171 12.6753 27.7961 11.7824 27.8516 11.6501C27.8536 11.6453 27.8555 11.6406 27.8575 11.6357C27.8972 11.5408 27.852 11.4308 27.7563 11.3912ZM18.9603 17.7173L19.0115 17.724C18.9487 17.7827 18.8975 17.8486 18.8569 17.9166C18.7678 17.9094 18.6869 17.9031 18.6236 17.9003C18.7109 17.8433 18.8233 17.7814 18.9603 17.7173Z" fill="#FFE15A"/>
</svg>
