<svg width="34" height="34" viewBox="0 0 34 34" fill="none" xmlns="http://www.w3.org/2000/svg">
<path d="M0 17C0 7.61116 7.61116 0 17 0C26.3888 0 34 7.61116 34 17C34 26.3888 26.3888 34 17 34C7.61116 34 0 26.3888 0 17Z" fill="#4C6C91"/>
<path d="M17.8891 22.5789C17.8891 22.5789 18.2163 22.5432 18.3839 22.3665C18.5374 22.2045 18.5321 21.899 18.5321 21.899C18.5321 21.899 18.5117 20.4721 19.1866 20.2614C19.8518 20.0542 20.7059 21.6413 21.6123 22.2516C22.297 22.713 22.8167 22.612 22.8167 22.612L25.2388 22.5789C25.2388 22.5789 26.5053 22.5023 25.9049 21.5246C25.8552 21.4445 25.5545 20.8012 24.1045 19.4796C22.5852 18.0963 22.7892 18.32 24.618 15.9268C25.7319 14.4694 26.1772 13.5797 26.0379 13.1993C25.9058 12.8354 25.0863 12.932 25.0863 12.932L22.3599 12.9485C22.3599 12.9485 22.1577 12.9216 22.0078 13.0095C21.8615 13.0957 21.7666 13.2968 21.7666 13.2968C21.7666 13.2968 21.3356 14.4242 20.76 15.3836C19.5458 17.4068 19.0607 17.5139 18.862 17.3885C18.3999 17.0951 18.5152 16.2115 18.5152 15.5838C18.5152 13.6224 18.8185 12.8049 17.9254 12.5933C17.6292 12.5228 17.411 12.4767 16.6527 12.4689C15.6798 12.4593 14.8567 12.4723 14.3902 12.6961C14.0798 12.8449 13.8403 13.1775 13.9867 13.1967C14.1667 13.2202 14.5747 13.3046 14.7911 13.5936C15.0705 13.9671 15.0607 14.8046 15.0607 14.8046C15.0607 14.8046 15.2213 17.1134 14.6856 17.3998C14.3184 17.5966 13.8146 17.1952 12.7317 15.3592C12.1774 14.419 11.7588 13.3795 11.7588 13.3795C11.7588 13.3795 11.6781 13.1853 11.5335 13.0809C11.3588 12.9546 11.1149 12.9155 11.1149 12.9155L8.52426 12.932C8.52426 12.932 8.13491 12.9424 7.99212 13.1087C7.86529 13.2559 7.98236 13.5614 7.98236 13.5614C7.98236 13.5614 10.0107 18.2199 12.3078 20.5679C14.4142 22.7199 16.8053 22.5789 16.8053 22.5789H17.8891Z" fill="white"/>
</svg>
