<svg width="20" height="20" viewBox="0 0 20 20" fill="none" xmlns="http://www.w3.org/2000/svg">
<circle cx="10" cy="10" r="10" fill="#FD4F6A"/>
<g clip-path="url(#clip0)">
<path d="M9.35722 10C9.35722 10.1705 9.42495 10.334 9.54551 10.4546C9.66607 10.5751 9.82958 10.6429 10.0001 10.6429C10.1706 10.6429 10.3341 10.5751 10.4546 10.4546C10.5752 10.334 10.6429 10.1705 10.6429 10C10.6429 9.8295 10.5752 9.66599 10.4546 9.54543C10.3341 9.42487 10.1706 9.35714 10.0001 9.35714C9.82958 9.35714 9.66607 9.42487 9.54551 9.54543C9.42495 9.66599 9.35722 9.8295 9.35722 10ZM12.0358 10C12.0358 10.1705 12.1035 10.334 12.2241 10.4546C12.3446 10.5751 12.5082 10.6429 12.6786 10.6429C12.8491 10.6429 13.0127 10.5751 13.1332 10.4546C13.2538 10.334 13.3215 10.1705 13.3215 10C13.3215 9.8295 13.2538 9.66599 13.1332 9.54543C13.0127 9.42487 12.8491 9.35714 12.6786 9.35714C12.5082 9.35714 12.3446 9.42487 12.2241 9.54543C12.1035 9.66599 12.0358 9.8295 12.0358 10ZM6.67865 10C6.67865 10.1705 6.74638 10.334 6.86694 10.4546C6.9875 10.5751 7.15101 10.6429 7.3215 10.6429C7.492 10.6429 7.65551 10.5751 7.77607 10.4546C7.89663 10.334 7.96436 10.1705 7.96436 10C7.96436 9.8295 7.89663 9.66599 7.77607 9.54543C7.65551 9.42487 7.492 9.35714 7.3215 9.35714C7.15101 9.35714 6.9875 9.42487 6.86694 9.54543C6.74638 9.66599 6.67865 9.8295 6.67865 10ZM15.534 7.675C15.2313 6.9558 14.7974 6.31027 14.2443 5.7558C13.695 5.20455 13.043 4.76637 12.3251 4.46607C11.5885 4.1567 10.8063 4 10.0001 4H9.97329C9.16168 4.00402 8.37552 4.16473 7.63624 4.4808C6.92448 4.78418 6.27855 5.22314 5.73445 5.77321C5.18668 6.32634 4.75677 6.9692 4.45945 7.68571C4.15142 8.42768 3.99606 9.21652 4.00008 10.0281C4.00462 10.9582 4.22466 11.8746 4.64293 12.7054V14.7411C4.64293 14.9045 4.70784 15.0612 4.82338 15.1767C4.93891 15.2922 5.09561 15.3571 5.259 15.3571H7.29606C8.12681 15.7754 9.0432 15.9955 9.97329 16H10.0014C10.8036 16 11.5818 15.8446 12.3144 15.5406C13.0286 15.2439 13.6782 14.8108 14.2269 14.2656C14.78 13.7179 15.2153 13.0777 15.5193 12.3638C15.8353 11.6246 15.9961 10.8384 16.0001 10.0268C16.0041 9.21116 15.8461 8.41964 15.534 7.675ZM13.5103 13.5411C12.5715 14.4705 11.326 14.9821 10.0001 14.9821H9.97731C9.16972 14.9781 8.36749 14.7772 7.65901 14.3996L7.5465 14.3393H5.66079V12.4536L5.60052 12.3411C5.22284 11.6326 5.02195 10.8304 5.01793 10.0228C5.01258 8.6875 5.52284 7.43393 6.459 6.48973C7.39383 5.54554 8.64338 5.02321 9.97865 5.01786H10.0014C10.6711 5.01786 11.3206 5.14777 11.9327 5.40491C12.53 5.65536 13.0657 6.01562 13.5264 6.47634C13.9858 6.93571 14.3474 7.47277 14.5978 8.07009C14.8577 8.68884 14.9876 9.34509 14.9849 10.0228C14.9769 11.3567 14.4532 12.6063 13.5103 13.5411Z" fill="white"/>
</g>
<defs>
<clipPath id="clip0">
<rect width="12" height="12" fill="white" transform="translate(4 4)"/>
</clipPath>
</defs>
</svg>
