<svg width="20" height="20" viewBox="0 0 20 20" fill="none" xmlns="http://www.w3.org/2000/svg">
<path d="M17.9168 5C17.9168 5.42736 17.5951 5.77959 17.1807 5.82773L17.0835 5.83333H16.3795L15.3534 16.266C15.238 17.4391 14.2515 18.3333 13.0727 18.3333H6.9276C5.74883 18.3333 4.76233 17.4391 4.64694 16.266L3.62078 5.83333H2.91683C2.45659 5.83333 2.0835 5.46024 2.0835 5C2.0835 4.53976 2.45659 4.16667 2.91683 4.16667H7.0835C7.0835 2.55584 8.38933 1.25 10.0002 1.25C11.611 1.25 12.9168 2.55584 12.9168 4.16667H17.0835C17.5437 4.16667 17.9168 4.53976 17.9168 5ZM11.8752 7.70833C11.5587 7.70833 11.2973 7.94346 11.2559 8.24853L11.2502 8.33333V14.1667L11.2559 14.2515C11.2973 14.5565 11.5587 14.7917 11.8752 14.7917C12.1916 14.7917 12.4531 14.5565 12.4945 14.2515L12.5002 14.1667V8.33333L12.4945 8.24853C12.4531 7.94346 12.1916 7.70833 11.8752 7.70833ZM8.12516 7.70833C7.80875 7.70833 7.54725 7.94346 7.50587 8.24853L7.50016 8.33333V14.1667L7.50587 14.2515C7.54725 14.5565 7.80875 14.7917 8.12516 14.7917C8.44158 14.7917 8.70307 14.5565 8.74446 14.2515L8.75016 14.1667V8.33333L8.74446 8.24853C8.70307 7.94346 8.44158 7.70833 8.12516 7.70833ZM10.0002 2.91667C9.30981 2.91667 8.75016 3.47631 8.75016 4.16667H11.2502C11.2502 3.47631 10.6905 2.91667 10.0002 2.91667Z" fill="#CF3C3C"/>
</svg>
