<svg width="22" height="22" viewBox="0 0 22 22" fill="none" xmlns="http://www.w3.org/2000/svg">
<path d="M0 0L22 0V22H0L0 0Z" fill="white"/>
<path d="M8.02051 12.375C9.42935 12.375 10.6098 13.3529 10.92 14.667L19.4788 14.6667C19.8585 14.6667 20.1663 14.9745 20.1663 15.3542C20.1663 15.7022 19.9077 15.9899 19.5721 16.0354L19.4788 16.0417L10.9198 16.0423C10.6092 17.3559 9.42902 18.3333 8.02051 18.3333C6.612 18.3333 5.43179 17.3559 5.1212 16.0423L2.52051 16.0417C2.14081 16.0417 1.83301 15.7339 1.83301 15.3542C1.83301 15.0061 2.09165 14.7185 2.42722 14.6729L2.52051 14.6667L5.12099 14.667C5.43124 13.3529 6.61167 12.375 8.02051 12.375ZM13.9788 3.66666C15.3877 3.66666 16.5681 4.64458 16.8784 5.95865L19.4788 5.95833C19.8585 5.95833 20.1663 6.26613 20.1663 6.64583C20.1663 6.99388 19.9077 7.28153 19.5721 7.32705L19.4788 7.33333L16.8781 7.33394C16.5676 8.64754 15.3873 9.625 13.9788 9.625C12.5703 9.625 11.3901 8.64754 11.0795 7.33394L2.52051 7.33333C2.14081 7.33333 1.83301 7.02553 1.83301 6.64583C1.83301 6.29778 2.09165 6.01013 2.42722 5.96461L2.52051 5.95833L11.0793 5.95865C11.3896 4.64458 12.57 3.66666 13.9788 3.66666Z" fill="#BABABA"/>
</svg>
