<svg width="22" height="22" viewBox="0 0 22 22" fill="none" xmlns="http://www.w3.org/2000/svg">
<path d="M9.16675 2.29166C12.9637 2.29166 16.0417 5.36971 16.0417 9.16666C16.0417 10.7343 15.5171 12.1794 14.6337 13.3359L18.9816 17.6851C19.3396 18.0431 19.3396 18.6235 18.9816 18.9815C18.6512 19.312 18.1312 19.3374 17.7716 19.0578L17.6852 18.9815L13.336 14.6337C12.1795 15.517 10.7344 16.0417 9.16675 16.0417C5.36979 16.0417 2.29175 12.9636 2.29175 9.16666C2.29175 5.36971 5.36979 2.29166 9.16675 2.29166ZM9.16675 4.125C6.38231 4.125 4.12508 6.38223 4.12508 9.16666C4.12508 11.9511 6.38231 14.2083 9.16675 14.2083C11.9512 14.2083 14.2084 11.9511 14.2084 9.16666C14.2084 6.38223 11.9512 4.125 9.16675 4.125Z" fill="#B5B5B5"/>
</svg>
