<svg width="22" height="22" viewBox="0 0 22 22" fill="none" xmlns="http://www.w3.org/2000/svg">
<path d="M19.4122 5.52848C18.9499 4.46256 18.2835 3.49746 17.4504 2.68763C16.6145 1.87049 15.6292 1.22193 14.5481 0.777366C13.4236 0.310848 12.2303 0.0751343 11.0001 0.0751343C9.77001 0.0751343 8.5767 0.310849 7.45215 0.774911C6.36443 1.22424 5.38965 1.86754 4.54992 2.68518C3.71736 3.49546 3.05096 4.46045 2.58809 5.52603C2.10929 6.63094 1.86621 7.8046 1.86621 9.01263C1.86621 10.7461 2.28117 12.4722 3.09635 14.137C3.75193 15.4751 4.66777 16.7789 5.82179 18.0189C7.79344 20.1354 9.86085 21.4294 10.4477 21.7756C10.6143 21.874 10.8042 21.9257 10.9977 21.9254C11.1892 21.9254 11.3783 21.8762 11.5477 21.7756C12.1345 21.4294 14.2019 20.1354 16.1736 18.0189C17.3276 16.7814 18.2434 15.4751 18.899 14.137C19.7191 12.4747 20.1341 10.751 20.1341 9.01509C20.1341 7.80705 19.891 6.63339 19.4122 5.52848ZM11.0001 20.0421C9.38206 19.0133 3.63407 14.9399 3.63407 9.01509C3.63407 7.10237 4.39768 5.30504 5.78496 3.94969C7.17715 2.59188 9.02849 1.84299 11.0001 1.84299C12.9718 1.84299 14.8231 2.59187 16.2153 3.95214C17.6026 5.30504 18.3662 7.10237 18.3662 9.01509C18.3662 14.9399 12.6182 19.0133 11.0001 20.0421ZM11.0001 4.88763C8.61353 4.88763 6.67871 6.82245 6.67871 9.20906C6.67871 11.5957 8.61353 13.5305 11.0001 13.5305C13.3867 13.5305 15.3216 11.5957 15.3216 9.20906C15.3216 6.82245 13.3867 4.88763 11.0001 4.88763ZM12.9448 11.1537C12.6897 11.4095 12.3866 11.6123 12.0529 11.7505C11.7191 11.8888 11.3614 11.9596 11.0001 11.9591C10.266 11.9591 9.57603 11.6718 9.0555 11.1537C8.79971 10.8986 8.59687 10.5955 8.45866 10.2618C8.32044 9.92806 8.24958 9.57029 8.25014 9.20906C8.25014 8.47491 8.53742 7.78495 9.0555 7.26442C9.57603 6.74388 10.266 6.45906 11.0001 6.45906C11.7343 6.45906 12.4242 6.74388 12.9448 7.26442C13.4653 7.78495 13.7501 8.47491 13.7501 9.20906C13.7501 9.94321 13.4653 10.6332 12.9448 11.1537Z" fill="#BABABA"/>
</svg>
