<svg width="22" height="22" viewBox="0 0 22 22" fill="none" xmlns="http://www.w3.org/2000/svg">
<g clip-path="url(#clip0)">
<path d="M9.82157 11C9.82157 11.3126 9.94574 11.6123 10.1668 11.8334C10.3878 12.0544 10.6876 12.1786 11.0001 12.1786C11.3127 12.1786 11.6125 12.0544 11.8335 11.8334C12.0545 11.6123 12.1787 11.3126 12.1787 11C12.1787 10.6874 12.0545 10.3876 11.8335 10.1666C11.6125 9.9456 11.3127 9.82143 11.0001 9.82143C10.6876 9.82143 10.3878 9.9456 10.1668 10.1666C9.94574 10.3876 9.82157 10.6874 9.82157 11ZM14.7323 11C14.7323 11.3126 14.8565 11.6123 15.0775 11.8334C15.2985 12.0544 15.5983 12.1786 15.9109 12.1786C16.2234 12.1786 16.5232 12.0544 16.7442 11.8334C16.9653 11.6123 17.0894 11.3126 17.0894 11C17.0894 10.6874 16.9653 10.3876 16.7442 10.1666C16.5232 9.9456 16.2234 9.82143 15.9109 9.82143C15.5983 9.82143 15.2985 9.9456 15.0775 10.1666C14.8565 10.3876 14.7323 10.6874 14.7323 11ZM4.91085 11C4.91085 11.3126 5.03502 11.6123 5.25605 11.8334C5.47707 12.0544 5.77685 12.1786 6.08943 12.1786C6.402 12.1786 6.70178 12.0544 6.9228 11.8334C7.14383 11.6123 7.268 11.3126 7.268 11C7.268 10.6874 7.14383 10.3876 6.9228 10.1666C6.70178 9.9456 6.402 9.82143 6.08943 9.82143C5.77685 9.82143 5.47707 9.9456 5.25605 10.1666C5.03502 10.3876 4.91085 10.6874 4.91085 11ZM21.1457 6.7375C20.5908 5.41897 19.7952 4.23549 18.7812 3.21897C17.7742 2.20834 16.5788 1.40501 15.2626 0.854464C13.9122 0.287277 12.4783 0 11.0001 0L10.951 0C9.46309 0.00736607 8.02179 0.302009 6.66643 0.881473C5.36155 1.43766 4.17735 2.24242 3.17983 3.25089C2.17559 4.26496 1.38742 5.44353 0.842327 6.75714C0.277595 8.11741 -0.00722677 9.56361 0.000139299 11.0516C0.00847094 12.7567 0.411883 14.4368 1.17871 15.9598V19.692C1.17871 19.9915 1.29771 20.2788 1.50952 20.4906C1.72134 20.7024 2.00862 20.8214 2.30818 20.8214H6.04277C7.56582 21.5883 9.24586 21.9917 10.951 22H11.0026C12.4734 22 13.8999 21.7152 15.243 21.1578C16.5525 20.6138 17.7435 19.8199 18.7492 18.8203C19.7633 17.8161 20.5613 16.6424 21.1187 15.3337C21.6981 13.9783 21.9928 12.5371 22.0001 11.0491C22.0075 9.55379 21.7178 8.10268 21.1457 6.7375ZM17.4356 17.492C15.7144 19.196 13.4309 20.1339 11.0001 20.1339H10.9584C9.47782 20.1266 8.00706 19.7583 6.70818 19.0658L6.50193 18.9554H3.04478V15.4982L2.93429 15.292C2.24188 13.9931 1.87358 12.5223 1.86621 11.0417C1.85639 8.59375 2.79188 6.29554 4.50818 4.56451C6.22202 2.83348 8.51286 1.87589 10.9609 1.86607H11.0026C12.2303 1.86607 13.4211 2.10424 14.5432 2.57567C15.6383 3.03482 16.6205 3.69531 17.4651 4.53996C18.3073 5.38214 18.9702 6.36674 19.4294 7.46183C19.9057 8.5962 20.1439 9.79933 20.139 11.0417C20.1242 13.4873 19.1642 15.7781 17.4356 17.492Z" fill="#BABABA"/>
</g>
<defs>
<clipPath id="clip0">
<rect width="22" height="22" fill="white"/>
</clipPath>
</defs>
</svg>
