<svg width="158" height="158" viewBox="0 0 158 158" fill="none" xmlns="http://www.w3.org/2000/svg">
<circle cx="79" cy="79" r="79" fill="#FFC1CB"/>
<circle cx="79" cy="79" r="64.1294" fill="#FFA0AF"/>
<circle cx="79.0001" cy="79" r="47.4" fill="#FD4F6A"/>
<path d="M88.5378 95.151L86.6991 96.9694C85.3439 98.2995 83.5856 100.009 81.4234 102.1C80.0723 103.406 77.9287 103.406 76.5778 102.1L71.17 96.8394C70.4903 96.172 69.9214 95.6093 69.4632 95.151C64.1959 89.8837 64.1959 81.3437 69.4632 76.0764C74.7305 70.8091 83.2705 70.8091 88.5378 76.0764C93.8051 81.3437 93.8051 89.8837 88.5378 95.151ZM82.8733 86.0392C82.8733 83.9003 81.1394 82.1664 79.0005 82.1664C76.8615 82.1664 75.1276 83.9003 75.1276 86.0392C75.1276 88.1781 76.8615 89.9121 79.0005 89.9121C81.1394 89.9121 82.8733 88.1781 82.8733 86.0392Z" fill="white"/>
</svg>
