<svg width="20" height="20" viewBox="0 0 20 20" fill="none" xmlns="http://www.w3.org/2000/svg">
<circle cx="10" cy="10" r="10" fill="#FD4F6A"/>
<path d="M10.4684 4.37573H9.53088C9.44755 4.37573 9.40588 4.4174 9.40588 4.50073V9.40698H4.75C4.66667 9.40698 4.625 9.44865 4.625 9.53198V10.4695C4.625 10.5528 4.66667 10.5945 4.75 10.5945H9.40588V15.5007C9.40588 15.5841 9.44755 15.6257 9.53088 15.6257H10.4684C10.5517 15.6257 10.5934 15.5841 10.5934 15.5007V10.5945H15.25C15.3333 10.5945 15.375 10.5528 15.375 10.4695V9.53198C15.375 9.44865 15.3333 9.40698 15.25 9.40698H10.5934V4.50073C10.5934 4.4174 10.5517 4.37573 10.4684 4.37573Z" fill="white"/>
</svg>
