<svg width="22" height="22" viewBox="0 0 22 22" fill="none" xmlns="http://www.w3.org/2000/svg">
<path d="M1.24921 3.56763L2.63403 4.65045C4.5222 2.23683 7.45881 0.6875 10.7564 0.6875C16.4503 0.6875 21.059 5.2913 21.0664 10.9877C21.0738 16.6891 16.4552 21.3125 10.7564 21.3125C6.30479 21.3125 2.51126 18.4888 1.06751 14.5333C1.03069 14.4301 1.0847 14.3147 1.18783 14.2804L2.58002 13.8016C2.62855 13.7849 2.68168 13.7879 2.72802 13.81C2.77437 13.832 2.81025 13.8713 2.82801 13.9194C2.8722 14.0422 2.92131 14.165 2.97287 14.2853C3.39765 15.292 4.00658 16.1955 4.78247 16.9714C5.5521 17.7425 6.46334 18.3578 7.46618 18.7835C8.50479 19.223 9.61216 19.4464 10.7514 19.4464C11.8932 19.4464 12.9981 19.223 14.0367 18.7835C15.0405 18.3596 15.9521 17.7441 16.7204 16.9714C17.4921 16.2019 18.1068 15.2896 18.53 14.2853C18.9695 13.2442 19.193 12.1393 19.193 10.9975C19.193 9.8558 18.9695 8.75089 18.53 7.70982C18.1052 6.70313 17.4963 5.79955 16.7204 5.02366C15.9445 4.24777 15.041 3.63884 14.0367 3.21161C12.9981 2.7721 11.8907 2.54866 10.7514 2.54866C9.6097 2.54866 8.50479 2.7721 7.46618 3.21161C6.46237 3.63551 5.5508 4.25101 4.78247 5.02366C4.53939 5.26674 4.31104 5.52455 4.09988 5.79464L5.57801 6.94866C5.60725 6.97129 5.62952 7.00171 5.64225 7.03642C5.65497 7.07114 5.65764 7.10874 5.64995 7.14491C5.64225 7.18107 5.6245 7.21433 5.59875 7.24086C5.57299 7.26739 5.54027 7.28611 5.50435 7.29487L1.19274 8.35067C1.06997 8.38014 0.949659 8.28683 0.949659 8.16161L0.930016 3.71987C0.93247 3.55781 1.12153 3.46696 1.24921 3.56763Z" fill="#674FFD"/>
</svg>
