<svg width="22" height="22" viewBox="0 0 22 22" fill="none" xmlns="http://www.w3.org/2000/svg">
<path d="M11.0114 2.06255C11.6842 2.0703 12.3544 2.14804 13.0111 2.2945C13.2978 2.35843 13.5122 2.59743 13.5447 2.88935L13.7008 4.28895C13.7714 4.93158 14.314 5.41832 14.9608 5.419C15.1347 5.41927 15.3067 5.38306 15.4673 5.31198L16.7512 4.74798C17.0183 4.63067 17.3303 4.69462 17.5296 4.90753C18.4574 5.89847 19.1484 7.08693 19.5506 8.3835C19.6373 8.66308 19.5375 8.96691 19.3019 9.14059L18.1639 9.97942C17.8393 10.2179 17.6475 10.5967 17.6475 10.9995C17.6475 11.4024 17.8393 11.7812 18.1646 12.0202L19.3036 12.8593C19.5393 13.033 19.6392 13.3368 19.5525 13.6165C19.1504 14.9128 18.4598 16.1012 17.5325 17.0923C17.3334 17.3052 17.0216 17.3693 16.7546 17.2523L15.4655 16.6875C15.0967 16.5261 14.6731 16.5498 14.3246 16.7512C13.976 16.9526 13.7441 17.3078 13.6998 17.708L13.5448 19.1074C13.5128 19.396 13.303 19.6334 13.0206 19.7006C11.6929 20.0165 10.3095 20.0165 8.98177 19.7006C8.69932 19.6334 8.48954 19.396 8.45758 19.1074L8.30282 17.71C8.25737 17.3106 8.02506 16.9565 7.6768 16.7558C7.32854 16.555 6.90568 16.5315 6.53809 16.692L5.24869 17.2569C4.98161 17.3739 4.66978 17.3097 4.47063 17.0967C3.54282 16.1045 2.85217 14.9147 2.45068 13.6169C2.3642 13.3374 2.46412 13.0338 2.69969 12.8602L3.83941 12.0206C4.16404 11.7821 4.35576 11.4033 4.35576 11.0005C4.35576 10.5976 4.16404 10.2189 3.83898 9.98003L2.69998 9.14182C2.46406 8.96821 2.36405 8.66418 2.45083 8.38441C2.85302 7.08785 3.54403 5.89938 4.47186 4.90844C4.6712 4.69554 4.98319 4.63159 5.25022 4.74889L6.5339 5.31279C6.90326 5.47489 7.32789 5.4504 7.67803 5.24585C8.02666 5.04363 8.25876 4.68808 8.30356 4.28788L8.45947 2.88935C8.49202 2.59728 8.70662 2.35821 8.99348 2.29441C9.65098 2.14818 10.3219 2.07048 11.0114 2.06255ZM11 8.25C9.48118 8.25 8.24997 9.48122 8.24997 11C8.24997 12.5188 9.48118 13.75 11 13.75C12.5187 13.75 13.75 12.5188 13.75 11C13.75 9.48122 12.5187 8.25 11 8.25Z" fill="#FD4F6A"/>
</svg>
