<svg width="8" height="8" viewBox="0 0 8 8" fill="none" xmlns="http://www.w3.org/2000/svg">
<path d="M3.59256 0.309596C3.72081 -0.103117 4.27919 -0.103117 4.40744 0.309595L5.05802 2.40327C5.11537 2.58784 5.27986 2.7128 5.46546 2.7128H7.57077C7.98578 2.7128 8.15833 3.2681 7.82258 3.52317L6.11935 4.81713C5.9692 4.9312 5.90637 5.1334 5.96372 5.31797L6.6143 7.41164C6.74254 7.82435 6.2908 8.16755 5.95505 7.91248L4.25181 6.61852C4.10166 6.50445 3.89834 6.50445 3.74819 6.61852L2.04495 7.91248C1.70921 8.16755 1.25746 7.82435 1.3857 7.41164L2.03628 5.31797C2.09363 5.1334 2.0308 4.9312 1.88065 4.81713L0.177417 3.52317C-0.158332 3.2681 0.0142202 2.7128 0.429228 2.7128H2.53454C2.72014 2.7128 2.88463 2.58784 2.94198 2.40327L3.59256 0.309596Z" fill="#FFB800"/>
</svg>
