<svg width="20" height="20" viewBox="0 0 20 20" fill="none" xmlns="http://www.w3.org/2000/svg">
<circle cx="10" cy="10" r="10" fill="#FD4F6A"/>
<path d="M8.02083 5.08H7.91667C7.97396 5.08 8.02083 5.026 8.02083 4.96V5.08H11.9792V4.96C11.9792 5.026 12.026 5.08 12.0833 5.08H11.9792V6.16H12.9167V4.96C12.9167 4.4305 12.543 4 12.0833 4H7.91667C7.45703 4 7.08333 4.4305 7.08333 4.96V6.16H8.02083V5.08ZM14.5833 6.16H5.41667C5.1862 6.16 5 6.3745 5 6.64V7.12C5 7.186 5.04688 7.24 5.10417 7.24H5.89062L6.21224 15.085C6.23307 15.5965 6.60026 16 7.04427 16H12.9557C13.401 16 13.7669 15.598 13.7878 15.085L14.1094 7.24H14.8958C14.9531 7.24 15 7.186 15 7.12V6.64C15 6.3745 14.8138 6.16 14.5833 6.16ZM12.8555 14.92H7.14453L6.82943 7.24H13.1706L12.8555 14.92Z" fill="white"/>
</svg>
