<svg width="20" height="20" viewBox="0 0 20 20" fill="none" xmlns="http://www.w3.org/2000/svg">
<circle cx="10" cy="10" r="10" fill="#FD4F6A"/>
<path d="M9.06201 13.4375C9.06201 13.6861 9.16078 13.9246 9.3366 14.1004C9.51241 14.2762 9.75087 14.375 9.99951 14.375C10.2482 14.375 10.4866 14.2762 10.6624 14.1004C10.8382 13.9246 10.937 13.6861 10.937 13.4375C10.937 13.1889 10.8382 12.9504 10.6624 12.7746C10.4866 12.5988 10.2482 12.5 9.99951 12.5C9.75087 12.5 9.51241 12.5988 9.3366 12.7746C9.16078 12.9504 9.06201 13.1889 9.06201 13.4375ZM9.53076 11.25H10.4683C10.5542 11.25 10.6245 11.1797 10.6245 11.0938V5.78125C10.6245 5.69531 10.5542 5.625 10.4683 5.625H9.53076C9.44482 5.625 9.37451 5.69531 9.37451 5.78125V11.0938C9.37451 11.1797 9.44482 11.25 9.53076 11.25Z" fill="white"/>
</svg>
